<?xml version="1.0" encoding="utf-8"?>
<!-- Generator: Adobe Illustrator 16.0.0, SVG Export Plug-In . SVG Version: 6.00 Build 0)  -->
<!DOCTYPE svg PUBLIC "-//W3C//DTD SVG 1.1//EN" "http://www.w3.org/Graphics/SVG/1.1/DTD/svg11.dtd">
<svg version="1.1" id="Layer_1" xmlns="http://www.w3.org/2000/svg" xmlns:xlink="http://www.w3.org/1999/xlink" x="0px" y="0px"
	 width="32px" height="32px" viewBox="0 0 32 32" enable-background="new 0 0 32 32" xml:space="preserve">
<g>
	<g>
		<path fill="#FFFFFF" d="M14.682,7.971c0.604,0.841,0.907,1.846,0.907,3.019c0,1.208-0.304,2.178-0.915,2.912
			c-0.342,0.411-0.845,0.787-1.51,1.126c1.008,0.368,1.771,0.95,2.285,1.745c0.513,0.795,0.77,1.763,0.77,2.898
			c0,1.17-0.293,2.223-0.881,3.151c-0.374,0.618-0.839,1.137-1.4,1.556c-0.633,0.485-1.375,0.814-2.235,0.993
			c-0.858,0.18-1.789,0.269-2.795,0.269H0V5.863h9.556C11.969,5.899,13.676,6.601,14.682,7.971z M3.945,9.298v4.362H8.75
			c0.858,0,1.555-0.166,2.093-0.491c0.535-0.327,0.803-0.907,0.803-1.736c0-0.922-0.355-1.53-1.062-1.827
			C9.972,9.401,9.195,9.298,8.247,9.298H3.945z M3.945,16.934v5.272h4.8c0.858,0,1.525-0.117,2.003-0.349
			c0.867-0.432,1.299-1.254,1.299-2.469c0-1.029-0.419-1.736-1.259-2.121c-0.47-0.215-1.129-0.328-1.978-0.336H3.945V16.934z"/>
		<path fill="#FFFFFF" d="M28.175,11.313c1.021,0.456,1.863,1.178,2.527,2.162c0.601,0.871,0.989,1.878,1.167,3.024
			c0.102,0.672,0.146,1.642,0.126,2.903H21.344c0.061,1.468,0.567,2.496,1.529,3.085c0.583,0.366,1.285,0.551,2.107,0.551
			c0.871,0,1.578-0.226,2.123-0.671c0.297-0.241,0.558-0.578,0.785-1.006h3.905c-0.104,0.867-0.576,1.75-1.419,2.646
			c-1.311,1.42-3.145,2.131-5.5,2.131c-1.947,0-3.664-0.6-5.15-1.8c-1.488-1.197-2.231-3.15-2.231-5.854
			c0-2.535,0.671-4.478,2.014-5.83c1.345-1.351,3.085-2.027,5.229-2.027C26.008,10.627,27.156,10.856,28.175,11.313z M22.456,14.615
			c-0.54,0.558-0.881,1.313-1.021,2.264h6.588c-0.067-1.015-0.408-1.783-1.019-2.311c-0.608-0.525-1.364-0.787-2.269-0.787
			C23.757,13.781,22.996,14.059,22.456,14.615z"/>
		<rect x="20.448" y="6.785" fill="#FFFFFF" width="8.475" height="2.46"/>
	</g>
</g>
</svg>
