<?xml version="1.0" encoding="utf-8"?>
<!-- Generator: Adobe Illustrator 16.0.0, SVG Export Plug-In . SVG Version: 6.00 Build 0)  -->
<!DOCTYPE svg PUBLIC "-//W3C//DTD SVG 1.1//EN" "http://www.w3.org/Graphics/SVG/1.1/DTD/svg11.dtd">
<svg version="1.1" id="Layer_1" xmlns="http://www.w3.org/2000/svg" xmlns:xlink="http://www.w3.org/1999/xlink" x="0px" y="0px"
	 width="32px" height="32px" viewBox="0 0 32 32" enable-background="new 0 0 32 32" xml:space="preserve">
<path fill="#FFFFFF" d="M16,0.009C7.168,0.009,0.008,7.167,0.008,16c0,8.835,7.16,15.991,15.992,15.991
	c8.833,0,15.992-7.156,15.992-15.991C31.992,7.167,24.834,0.009,16,0.009z M26.146,7.376c1.799,2.112,2.944,4.794,3.14,7.738
	c-2.88-0.155-6.328-0.152-9.101,0.11c-0.347-0.884-0.705-1.751-1.095-2.583C22.289,11.259,24.746,9.444,26.146,7.376z M16,2.674
	c3.23,0,6.195,1.152,8.501,3.066c-1.45,1.836-3.716,3.426-6.551,4.63c-1.551-2.861-3.33-5.33-5.229-7.272
	C13.773,2.829,14.866,2.674,16,2.674z M9.971,4.126c1.925,1.913,3.733,4.358,5.313,7.21c-3.01,0.916-6.459,1.445-10.135,1.445
	c-0.695,0-1.379-0.026-2.058-0.066C4.046,8.963,6.589,5.846,9.971,4.126z M2.696,15.364c0.758,0.033,1.524,0.046,2.302,0.038
	c4.194-0.053,8.109-0.703,11.461-1.781c0.312,0.66,0.614,1.334,0.9,2.026c-0.459,0.105-0.865,0.223-1.19,0.36
	c-4.592,1.923-8.204,5.031-10.164,8.79C3.938,22.446,2.673,19.376,2.673,16C2.673,15.787,2.686,15.574,2.696,15.364z M16,29.326
	c-3.081,0-5.91-1.055-8.167-2.812c1.772-3.511,4.938-6.416,8.929-8.226c0.379-0.172,0.877-0.313,1.448-0.438
	c0.474,1.318,0.903,2.687,1.272,4.098c0.58,2.209,0.981,4.387,1.233,6.505C19.251,29.011,17.664,29.326,16,29.326z M23.203,27.204
	c-0.252-2.144-0.66-4.34-1.243-6.572c-0.284-1.081-0.61-2.131-0.955-3.157c2.613-0.216,5.75-0.182,8.234,0
	C28.787,21.561,26.495,25.081,23.203,27.204z"/>
</svg>
