<?xml version="1.0" encoding="utf-8"?>
<!-- Generator: Adobe Illustrator 16.0.0, SVG Export Plug-In . SVG Version: 6.00 Build 0)  -->
<!DOCTYPE svg PUBLIC "-//W3C//DTD SVG 1.1//EN" "http://www.w3.org/Graphics/SVG/1.1/DTD/svg11.dtd">
<svg version="1.1" id="Layer_1" xmlns="http://www.w3.org/2000/svg" xmlns:xlink="http://www.w3.org/1999/xlink" x="0px" y="0px"
	 width="32px" height="32px" viewBox="0 0 32 32" enable-background="new 0 0 32 32" xml:space="preserve">
<path id="LinkedIn__x28_alt_x29__1_" fill="#FFFFFF" d="M7.342,31.064H0.538V10.739h6.805L7.342,31.064L7.342,31.064z M3.94,7.961
	H3.892c-2.276,0-3.754-1.56-3.754-3.513c0-1.995,1.519-3.514,3.848-3.514c2.326,0,3.758,1.519,3.803,3.514
	C7.788,6.402,6.311,7.961,3.94,7.961z M31.863,31.064h-6.799V20.191c0-2.736-0.986-4.598-3.445-4.598c-1.881,0-3,1.254-3.49,2.469
	c-0.182,0.438-0.225,1.043-0.225,1.646v11.355h-6.802c0,0,0.091-18.42,0-20.327h6.802v2.882c0.904-1.388,2.514-3.36,6.129-3.36
	c4.473,0,7.83,2.902,7.83,9.151V31.064z M17.861,13.684c0.01-0.022,0.024-0.043,0.043-0.063v0.063H17.861z"/>
</svg>
