<?xml version="1.0" encoding="utf-8"?>
<!-- Generator: Adobe Illustrator 16.0.0, SVG Export Plug-In . SVG Version: 6.00 Build 0)  -->
<!DOCTYPE svg PUBLIC "-//W3C//DTD SVG 1.1//EN" "http://www.w3.org/Graphics/SVG/1.1/DTD/svg11.dtd">
<svg version="1.1" id="Layer_1" xmlns="http://www.w3.org/2000/svg" xmlns:xlink="http://www.w3.org/1999/xlink" x="0px" y="0px"
	 width="32px" height="32px" viewBox="0 0 32 32" enable-background="new 0 0 32 32" xml:space="preserve">
<path fill="#FFFFFF" d="M16,0.244c-5.145,0-9.713,2.467-12.588,6.283C1.422,9.164,0.244,12.443,0.244,16
	c0,8.701,7.053,15.755,15.756,15.756c5.216,0,9.838-2.537,12.706-6.441c1.916-2.608,3.05-5.83,3.05-9.313
	C31.754,7.298,24.7,0.244,16,0.244z M26.866,26.865c-2.782,2.781-6.623,4.501-10.866,4.501c-0.844,0-1.67-0.07-2.476-0.201v-6.649
	L13.52,13.845c0.033-2.253,2.818-2.087,2.818-2.087l3.73-0.004l-1.256,2.043l-0.195,0.319l-2.798,0.003
	c-1.125-0.003-1.278,0.528-1.274,1.444l-0.011,1.896h0.073h0.477h0.456h1.078l-0.093,0.15l-1.321,2.152l-0.596,0.001h-0.033v4.977
	c0.398,0.061,1.426,0.134,1.934,0.134c2.634,0,4.913-0.975,6.839-2.925c1.924-1.95,2.887-4.269,2.887-6.953
	c0-2.76-0.969-5.091-2.906-6.99c-1.939-1.9-4.318-2.849-7.144-2.849c-1.418,0-2.8,0.31-4.149,0.93
	c-1.349,0.621-2.46,1.457-3.334,2.508C7.18,10.418,6.419,12.78,6.419,15.68v12.33c-0.448-0.357-0.88-0.738-1.286-1.145
	C2.353,24.084,0.634,20.244,0.634,16c0-4.245,1.718-8.084,4.499-10.866c2.781-2.781,6.621-4.5,10.867-4.5
	c4.243,0,8.084,1.719,10.866,4.5c2.78,2.782,4.499,6.621,4.499,10.866C31.365,20.244,29.646,24.084,26.866,26.865z"/>
</svg>
