<?xml version="1.0" encoding="utf-8"?>
<!-- Generator: Adobe Illustrator 16.0.0, SVG Export Plug-In . SVG Version: 6.00 Build 0)  -->
<!DOCTYPE svg PUBLIC "-//W3C//DTD SVG 1.1//EN" "http://www.w3.org/Graphics/SVG/1.1/DTD/svg11.dtd">
<svg version="1.1" id="Layer_1" xmlns="http://www.w3.org/2000/svg" xmlns:xlink="http://www.w3.org/1999/xlink" x="0px" y="0px"
	 width="32px" height="32px" viewBox="0 0 32 32" enable-background="new 0 0 32 32" xml:space="preserve">
<path fill="#FFFFFF" d="M32.131,6.002c-1.186,0.529-2.463,0.882-3.799,1.039c1.367-0.819,2.413-2.116,2.911-3.659
	c-1.279,0.756-2.696,1.31-4.202,1.606c-1.211-1.285-2.93-2.091-4.833-2.091c-3.653,0-6.615,2.961-6.615,6.615
	c0,0.518,0.056,1.021,0.17,1.506C10.265,10.74,5.388,8.106,2.125,4.106C1.559,5.083,1.23,6.222,1.23,7.433
	c0,2.293,1.165,4.321,2.942,5.506c-1.084-0.032-2.104-0.334-2.998-0.826c0,0.026,0,0.058,0,0.083c0,3.207,2.279,5.877,5.304,6.487
	c-0.554,0.151-1.141,0.233-1.745,0.233c-0.429,0-0.838-0.044-1.248-0.119c0.845,2.627,3.283,4.541,6.181,4.593
	c-2.262,1.776-5.116,2.834-8.214,2.834c-0.536,0-1.06-0.031-1.582-0.095c2.93,1.878,6.406,2.974,10.142,2.974
	c12.171,0,18.823-10.08,18.823-18.823c0-0.29-0.005-0.573-0.019-0.856C30.121,8.498,31.243,7.331,32.131,6.002z"/>
</svg>
